<?xml version="1.0" standalone="no"?><!DOCTYPE svg PUBLIC "-//W3C//DTD SVG 1.1//EN" "http://www.w3.org/Graphics/SVG/1.1/DTD/svg11.dtd"><svg t="1618388481165" class="icon" viewBox="0 0 1024 1024" version="1.1" xmlns="http://www.w3.org/2000/svg" p-id="7069" xmlns:xlink="http://www.w3.org/1999/xlink" width="200" height="200"><defs><style type="text/css"></style></defs><path d="M512 853.333333A341.333333 341.333333 0 1 1 512 170.666667a341.333333 341.333333 0 0 1 0 682.666666z m0 85.333334a426.666667 426.666667 0 1 0 0-853.333334 426.666667 426.666667 0 0 0 0 853.333334z m42.666667-256a42.666667 42.666667 0 1 1-85.333334 0 42.666667 42.666667 0 0 1 85.333334 0z m-85.333334-128v25.6a17.066667 17.066667 0 0 0 17.066667 17.066666h51.2a17.066667 17.066667 0 0 0 17.066667-17.066666v-25.6c0-31.175111 17.806222-40.96 20.878222-42.439111a8.760889 8.760889 0 0 1 0.910222-0.398223C640 490.382222 640 426.666667 640 426.666667a128 128 0 0 0-254.862222-17.066667c-1.251556 9.386667 6.485333 17.066667 15.928889 17.066667h51.2c9.443556 0 16.725333-7.964444 20.423111-16.611556A42.666667 42.666667 0 0 1 554.666667 426.666667c0 34.133333-28.444444 42.666667-42.666667 42.666666 0 0-42.666667 0-42.666667 85.333334z" p-id="7070"></path></svg>