<svg width="32" height="32" viewBox="0 0 32 32" fill="none" xmlns="http://www.w3.org/2000/svg">
<path d="M2.54328 6.4516C2.98815 6.45115 3.42535 6.56746 3.81118 6.78891C4.19702 7.01036 4.51798 7.32919 4.74199 7.71354L9.9549 16.6555C10.1158 16.9324 10.3466 17.1622 10.6243 17.322C10.9019 17.4817 11.2165 17.5658 11.5368 17.5658C11.8571 17.5658 12.1718 17.4817 12.4494 17.322C12.727 17.1622 12.9578 16.9324 13.1188 16.6555C13.2799 16.378 13.3648 16.0628 13.3648 15.7419C13.3648 15.421 13.2799 15.1059 13.1188 14.8284L10.4478 10.1677C10.2304 9.79119 10.1159 9.36406 10.1159 8.92927C10.1158 8.49447 10.2302 8.06733 10.4476 7.69074C10.6649 7.31415 10.9775 7.00139 11.354 6.78388C11.7304 6.56637 12.1575 6.45178 12.5923 6.4516V6.4516C13.0278 6.45106 13.4557 6.56557 13.8328 6.78354C14.2098 7.00151 14.5226 7.31521 14.7394 7.69289L22.9639 21.9587C23.1833 22.337 23.2988 22.7666 23.2988 23.2039C23.2988 23.6412 23.1833 24.0707 22.9639 24.449V24.449C22.7448 24.8238 22.4311 25.1344 22.0542 25.3497C21.6772 25.5651 21.2503 25.6776 20.8162 25.6761C20.3821 25.6745 19.9561 25.5589 19.5807 25.3408C19.2053 25.1227 18.8939 24.8099 18.6775 24.4335L17.3639 22.1574C17.2037 21.8792 16.973 21.6482 16.695 21.4875C16.4171 21.3269 16.1017 21.2423 15.7807 21.2423C15.4597 21.2423 15.1443 21.3269 14.8664 21.4875C14.5884 21.6482 14.3577 21.8792 14.1975 22.1574L12.9072 24.3793C12.6833 24.7691 12.3606 25.0929 11.9716 25.3181C11.5826 25.5433 11.1411 25.6618 10.6917 25.6618C10.2422 25.6618 9.8007 25.5433 9.41171 25.3181C9.02272 25.0929 8.70002 24.7691 8.47619 24.3793L0.339413 10.2658C0.116716 9.87903 -0.000337048 9.44049 7.28969e-07 8.99419C0.000338506 8.54789 0.118055 8.10953 0.341337 7.7231C0.564619 7.33667 0.885612 7.01577 1.2721 6.79259C1.65859 6.56941 2.09698 6.45182 2.54328 6.4516V6.4516Z" fill="#00A0FF"/>
<path d="M21.4153 6.4516H30.0166C30.3376 6.45174 30.6529 6.53631 30.9308 6.69683C31.2088 6.85736 31.4396 7.08818 31.6002 7.36613C31.7607 7.64408 31.8453 7.95937 31.8455 8.28035C31.8456 8.60134 31.7614 8.91672 31.6011 9.19483L27.3095 16.6503C27.1489 16.9284 26.9179 17.1594 26.6398 17.32C26.3616 17.4806 26.0461 17.5651 25.725 17.5651C25.4038 17.5651 25.0883 17.4806 24.8101 17.32C24.532 17.1594 24.301 16.9284 24.1404 16.6503L19.8411 9.19483C19.6812 8.91747 19.597 8.60304 19.5967 8.28293C19.5964 7.96281 19.6801 7.64822 19.8394 7.37058C19.9987 7.09293 20.2281 6.86194 20.5046 6.70068C20.7812 6.53942 21.0952 6.45354 21.4153 6.4516V6.4516Z" fill="#FBC70D"/>
</svg>
