<svg width="149" height="22" viewBox="0 0 149 22" fill="none" xmlns="http://www.w3.org/2000/svg">
<path d="M2.78713 0.676912C3.27389 0.676428 3.75225 0.801732 4.17441 1.0403C4.59657 1.27887 4.94775 1.62235 5.19286 2.03642L10.8966 11.6697C11.0727 11.9681 11.3252 12.2157 11.6289 12.3878C11.9327 12.5599 12.277 12.6505 12.6274 12.6505C12.9779 12.6505 13.3222 12.5599 13.626 12.3878C13.9297 12.2157 14.1822 11.9681 14.3583 11.6697C14.5346 11.3708 14.6275 11.0312 14.6275 10.6856C14.6275 10.3399 14.5346 10.0003 14.3583 9.70137L11.4359 4.68037C11.198 4.27471 11.0728 3.81456 11.0727 3.34615C11.0727 2.87774 11.1978 2.41756 11.4356 2.01186C11.6734 1.60616 12.0154 1.26922 12.4274 1.03489C12.8393 0.80056 13.3066 0.6771 13.7823 0.676912C14.2588 0.676327 14.727 0.799689 15.1396 1.03451C15.5521 1.26934 15.8943 1.60729 16.1316 2.01418L25.1304 17.383C25.3704 17.7906 25.4968 18.2533 25.4968 18.7244C25.4968 19.1956 25.3704 19.6583 25.1304 20.0659C24.8907 20.4696 24.5474 20.8043 24.135 21.0363C23.7226 21.2683 23.2555 21.3895 22.7805 21.3878C22.3056 21.3861 21.8394 21.2616 21.4287 21.0266C21.018 20.7917 20.6772 20.4546 20.4404 20.0492L19.0032 17.5971C18.8279 17.2974 18.5754 17.0485 18.2713 16.8754C17.9672 16.7023 17.6221 16.6112 17.2709 16.6112C16.9196 16.6112 16.5746 16.7023 16.2705 16.8754C15.9664 17.0485 15.7139 17.2974 15.5386 17.5971L14.1268 19.9908C13.8819 20.4107 13.5288 20.7596 13.1032 21.0022C12.6776 21.2447 12.1945 21.3725 11.7027 21.3725C11.2109 21.3725 10.7279 21.2447 10.3022 21.0022C9.87663 20.7596 9.52355 20.4107 9.27864 19.9908L0.375764 4.78602C0.1321 4.36934 0.00402575 3.8969 0.00439533 3.41609C0.00476491 2.93529 0.133565 2.46303 0.377869 2.04673C0.622174 1.63042 0.973389 1.2847 1.39627 1.04427C1.81915 0.803835 2.29882 0.677145 2.78713 0.676912Z" fill="#00A0FF"/>
<path d="M23.4366 0.67691H32.8477C33.1989 0.677057 33.5439 0.768171 33.848 0.941106C34.1522 1.11404 34.4047 1.36271 34.5804 1.66215C34.7561 1.96159 34.8486 2.30126 34.8488 2.64706C34.849 2.99286 34.7568 3.33263 34.5814 3.63224L29.8857 11.6642C29.71 11.9638 29.4573 12.2126 29.153 12.3856C28.8487 12.5586 28.5034 12.6497 28.152 12.6497C27.8006 12.6497 27.4554 12.5586 27.1511 12.3856C26.8468 12.2126 26.5941 11.9638 26.4183 11.6642L21.7142 3.63224C21.5393 3.33344 21.4471 2.9947 21.4468 2.64983C21.4465 2.30497 21.538 1.96606 21.7124 1.66694C21.8867 1.36783 22.1377 1.11898 22.4402 0.945254C22.7428 0.771527 23.0864 0.678999 23.4366 0.67691Z" fill="#FBC70D"/>
<path d="M146.04 16.85C146.546 16.838 147.036 17.0237 147.404 17.3665C147.771 17.7093 147.985 18.1813 148 18.6794C148.02 19.0646 147.923 19.447 147.72 19.7772C147.518 20.1074 147.219 20.3702 146.863 20.5317C146.508 20.6932 146.111 20.7459 145.724 20.6832C145.338 20.6204 144.979 20.445 144.695 20.1796C144.411 19.9142 144.214 19.5709 144.129 19.1942C144.045 18.8174 144.077 18.4245 144.222 18.0661C144.367 17.7076 144.618 17.4002 144.942 17.1834C145.266 16.9667 145.649 16.8505 146.04 16.85ZM147.509 15.0651H144.569V3.35501H147.506L147.509 15.0651Z" fill="black"/>
<path d="M43.4048 20.3382V3.43198H46.8185V9.82639H53.3665V3.43198H56.7549V20.3382H53.3665V12.9096H46.8185V20.3382H43.4048Z" fill="black"/>
<path d="M70.6359 15.5388H62.6648C62.7806 17.154 63.6446 18.2077 65.1722 18.2077C66.2423 18.2077 66.9708 17.7129 67.5835 16.6369L70.4749 17.5794C69.4754 19.6201 67.4932 20.6376 65.11 20.6376C61.6737 20.6376 59.3047 18.4135 59.3047 14.8743C59.3047 11.3351 61.6737 9.06927 64.9971 9.06927C68.4363 9.06927 70.6218 11.2934 70.6218 14.941L70.6359 15.5388ZM67.2871 13.4091C67.1289 12.222 66.2875 11.527 65.0564 11.527C63.8253 11.527 63.0545 12.2887 62.7975 13.4091H67.2871Z" fill="black"/>
<path d="M72.9116 20.3393V1.99008H76.2124V20.3393H72.9116Z" fill="black"/>
<path d="M79.1489 20.3393V1.99008H82.4497V20.3393H79.1489Z" fill="black"/>
<path d="M84.7085 14.8015C84.7085 11.5292 87.2497 9.08542 90.8555 9.08542C94.4613 9.08542 97.0025 11.4597 97.0025 14.8682C97.0025 18.2767 94.4613 20.6537 90.8103 20.6537C87.2497 20.6537 84.7085 18.2989 84.7085 14.8015ZM93.7017 14.8682C93.7017 13.0972 92.5864 11.8656 90.8555 11.8656C89.1246 11.8656 88.0065 13.0972 88.0065 14.8571C88.0065 16.6948 89.1218 17.8847 90.8527 17.8847C92.5836 17.8847 93.6989 16.6836 93.6989 14.8571L93.7017 14.8682Z" fill="black"/>
<path d="M110.071 20.3382L103.421 3.43198H107.063L111.016 14.397L114.941 3.43198H116.469L120.247 14.397L124.437 3.43198H128.108L121.204 20.3382H119.292L115.67 9.85141L111.96 20.3382H110.071Z" fill="black"/>
<path d="M129.887 20.3382V3.43198H139.86V6.34838H133.292V9.82361H139.6V12.6928H133.292V17.4191H139.896V20.3382H129.887Z" fill="black"/>
</svg>
